<svg id="SvgjsSvg1011" width="288" height="288" xmlns="http://www.w3.org/2000/svg" version="1.1" xmlns:xlink="http://www.w3.org/1999/xlink" xmlns:svgjs="http://svgjs.com/svgjs"><defs id="SvgjsDefs1012"></defs><g id="SvgjsG1013"><svg xmlns="http://www.w3.org/2000/svg" viewBox="0 0 24 24" width="288" height="288"><path d="M20,7.85A1,1,0,0,0,19,7H17A5,5,0,0,0,7,7H5a1,1,0,0,0-1,.85l-2,13A1,1,0,0,0,3,22H21a1,1,0,0,0,1-1.15ZM12,4a3,3,0,0,1,3,3H9A3,3,0,0,1,12,4Z" data-name="Shop Sale Bag Business Management" fill="#a9a9a9" class="color000 svgShape"></path></svg></g></svg>