<svg width="30" height="30" viewBox="0 0 30 30" fill="none" xmlns="http://www.w3.org/2000/svg">
<path fill-rule="evenodd" clip-rule="evenodd" d="M1.25 15C1.25 22.5939 7.40608 28.75 15 28.75C22.5939 28.75 28.75 22.5939 28.75 15C28.75 7.40608 22.5939 1.25 15 1.25C7.40608 1.25 1.25 7.40608 1.25 15ZM26.25 15C26.25 21.2132 21.2132 26.25 15 26.25C8.7868 26.25 3.75 21.2132 3.75 15C3.75 8.7868 8.7868 3.75 15 3.75C21.2132 3.75 26.25 8.7868 26.25 15ZM15.0004 21.2479C15.691 21.2479 16.2508 20.6883 16.2508 19.9979C16.2508 19.3076 15.691 18.7479 15.0004 18.7479C14.3098 18.7479 13.75 19.3076 13.75 19.9979C13.75 20.6883 14.3098 21.2479 15.0004 21.2479ZM13.75 17.5H16.25C16.25 16.5021 16.4068 16.3192 17.434 15.8055C19.2193 14.9129 20 14.0021 20 11.875C20 9.15079 17.8554 7.5 15 7.5C12.2386 7.5 10 9.73858 10 12.5H12.5C12.5 11.1193 13.6193 10 15 10C16.5965 10 17.5 10.6955 17.5 11.875C17.5 12.8729 17.3432 13.0558 16.316 13.5695C14.5307 14.4621 13.75 15.3729 13.75 17.5Z" fill="white"/>
</svg>
