<svg width="30" height="30" viewBox="0 0 30 30" fill="none" xmlns="http://www.w3.org/2000/svg">
<path fill-rule="evenodd" clip-rule="evenodd" d="M7.58906 5.00318C7.36706 5.0027 7.15305 5.02783 6.9497 5.0756C6.67092 4.46117 6.3027 3.90993 5.88388 3.49112C5.17304 2.78028 4.05194 2.5 2.5 2.5V5C3.44806 5 3.99362 5.13639 4.11612 5.25888C4.58858 5.73135 5 6.69133 5 7.5L5.01256 7.67678L6.2374 16.2506C4.18794 16.357 2.60025 17.9485 2.50154 19.9381L2.5 21.25C2.62103 23.3049 4.20344 24.8857 6.17905 24.998L6.46282 24.9984C6.97717 26.4557 8.36664 27.5 10 27.5C11.6328 27.5 13.0218 26.4565 13.5366 25H16.4634C16.9782 26.4565 18.3672 27.5 20 27.5C22.0711 27.5 23.75 25.8211 23.75 23.75C23.75 21.6789 22.0711 20 20 20C18.3672 20 16.9782 21.0435 16.4634 22.5H13.5366C13.0218 21.0435 11.6328 20 10 20C8.36723 20 6.97818 21.0435 6.46338 22.5H6.25C5.61251 22.4617 5.04067 21.8905 4.99776 21.1751L5 20C5.03371 19.3516 5.60164 18.7837 6.31194 18.7485L8.77962 18.7491L8.7975 18.75H21.3961L21.5806 18.6915C22.5283 18.3907 23.2871 17.677 23.6463 16.7532L23.778 16.4925L24.2058 15.6448C24.6485 14.7674 25.0911 13.8884 25.5225 13.0298C26.579 10.9263 27.2435 9.58958 27.3906 9.26132C28.1463 7.57556 26.6155 6.27808 25.0509 6.25045L7.58906 5.00318ZM20.9618 16.25H8.89109C8.81083 16.2277 8.74966 16.1597 8.73769 16.075L7.51282 7.50092L24.8667 8.74366C24.5631 9.3629 24.0111 10.4689 23.2885 11.9076L23.2704 11.9437C22.8579 12.7648 22.4158 13.6426 21.9738 14.5188L21.5464 15.3654L21.3844 15.686L21.3235 15.8278C21.2582 16.0097 21.1285 16.1592 20.9618 16.25ZM20 25C20.6904 25 21.25 24.4404 21.25 23.75C21.25 23.0596 20.6904 22.5 20 22.5C19.3096 22.5 18.75 23.0596 18.75 23.75C18.75 24.4404 19.3096 25 20 25ZM11.25 23.75C11.25 24.4404 10.6904 25 10 25C9.30964 25 8.75 24.4404 8.75 23.75C8.75 23.0596 9.30964 22.5 10 22.5C10.6904 22.5 11.25 23.0596 11.25 23.75Z" fill="white"/>
</svg>
