<svg width="30" height="30" viewBox="0 0 30 30" fill="none" xmlns="http://www.w3.org/2000/svg">
      <path fill-rule="evenodd" clip-rule="evenodd" d="M15 28.75C7.40608 28.75 1.25 22.5939 1.25 15C1.25 7.40608 7.40608 1.25 15 1.25C22.5939 1.25 28.75 7.40608 28.75 15C28.75 22.5939 22.5939 28.75 15 28.75ZM24.2494 21.4058C25.5108 19.5879 26.25 17.3803 26.25 15C26.25 8.7868 21.2132 3.75 15 3.75C8.7868 3.75 3.75 8.7868 3.75 15C3.75 17.3803 4.48923 19.5879 5.75063 21.4058C7.15744 19.5476 10.4633 18.75 15 18.75C19.5367 18.75 22.8426 19.5476 24.2494 21.4058ZM22.4559 23.4247C22.09 22.1092 19.4617 21.25 15 21.25C10.5383 21.25 7.91 22.1092 7.54415 23.4247C9.52913 25.1827 12.1399 26.25 15 26.25C17.8601 26.25 20.4709 25.1827 22.4559 23.4247ZM15 18.75C12.2011 18.75 10 16.7842 10 12.5C10 9.69.9739 7.5 15 7.5C18.0177 7.5 20 9.90197 20 12.75C20 16.8495 17.7726 18.75 15 18.75ZM12.5 12.5C12.5 15.3366 13.5228 16.25 15 16.25C16.4721 16.25 17.5 15.373 17.5 12.75C17.188 16.5196 10 15 10C13.4172 10 12.0198 12.5 12.5Z" fill="white"/>
      </svg>