<svg width="20" height="20" viewBox="0 0 20 20" fill="none" xmlns="http://www.w3.org/2000/svg">
<path fill-rule="evenodd" clip-rule="evenodd" d="M13.7943 1.66676C12.5879 1.66675 11.8102 1.81047 10.9188 2.24681C10.5888 2.40836 10.2791 2.60291 9.99156 2.82988C9.71508 2.61563 9.41782 2.43001 9.10143 2.27353C8.19268 1.82406 7.37515 1.66675 6.21204 1.66675C3.09695 1.66675 0.833252 4.2478 0.833252 7.59998C0.833252 10.1315 2.24478 12.577 4.87395 14.9417C6.254 16.1829 8.01602 17.4112 9.27792 18.0646L9.99992 18.4385L10.7219 18.0646C11.9838 17.4112 13.7458 16.1829 15.1259 14.9417C17.7551 12.577 19.1666 10.1315 19.1666 7.59998C19.1666 4.28329 16.8815 1.67955 13.7943 1.66676ZM17.4999 7.59998C17.4999 9.58333 16.3217 11.6245 14.0114 13.7025C12.7517 14.8354 11.1324 15.9675 9.99992 16.5615C8.86745 15.9675 7.2481 14.8354 5.98848 13.7025C3.6781 11.6245 2.49992 9.58333 2.49992 7.59998C2.49992 5.12318 4.06962 3.33341 6.21204 3.33341C7.13682 3.33341 7.70669 3.44307 8.36253 3.76745C8.74992 3.95906 9.09231 4.21206 9.38869 4.52822L10.0019 5.18233L10.6095 4.52304C10.9125 4.19421 11.2599 3.93545 11.6515 3.74377C12.2881 3.43216 12.8224 3.33342 13.7908 3.33342C15.9068 3.34219 17.4999 5.15755 17.4999 7.59998Z" fill="#464646"/>
</svg>
